<svg xmlns="http://www.w3.org/2000/svg" xmlns:xlink="http://www.w3.org/1999/xlink" version="1.1" x="0px" y="0px" viewBox="0 0 100 100" enable-background="new 0 0 100 100" xml:space="preserve"><ellipse fill="#ffffff" cx="32.014" cy="48.201" rx="2.475" ry="2.46"/><ellipse fill="#ffffff" cx="67.983" cy="48.201" rx="2.474" ry="2.46"/><path fill="#ffffff" d="M59.723,56.846c-0.828,0-1.5,0.672-1.5,1.5c0,1.837-1.508,3.331-3.36,3.331c-1.854,0-3.362-1.494-3.362-3.331v-0.861  c0.823-0.283,1.578-0.795,2.178-1.498c1.336-1.568,0.94-2.906,0.708-3.408c-0.351-0.761-1.387-2.035-4.386-2.035  c-3.001,0-4.038,1.275-4.388,2.036c-0.231,0.503-0.626,1.842,0.712,3.407c0.599,0.703,1.353,1.215,2.176,1.499v0.86  c0,1.837-1.508,3.331-3.361,3.331s-3.361-1.494-3.361-3.331c0-0.828-0.671-1.5-1.5-1.5s-1.5,0.672-1.5,1.5  c0,3.491,2.854,6.331,6.361,6.331c1.949,0,3.694-0.879,4.861-2.257c1.168,1.378,2.913,2.257,4.862,2.257  c3.507,0,6.36-2.84,6.36-6.331C61.223,57.518,60.551,56.846,59.723,56.846z M50,53.543c0.855,0,1.346,0.151,1.567,0.263  c-0.036,0.06-0.09,0.138-0.172,0.234c-0.77,0.9-2.02,0.903-2.79-0.001c-0.082-0.097-0.137-0.175-0.172-0.234  C48.655,53.693,49.146,53.543,50,53.543z"/><path fill="#ffffff" d="M88.747,64.884l-6.479-2.782c0.645-1.48,1.139-3.02,1.484-4.601h4.399c0.828,0,1.5-0.672,1.5-1.5s-0.672-1.5-1.5-1.5h-3.939  c0.064-0.713,0.107-1.431,0.107-2.157c0-0.442-0.009-1.621-0.079-3.29l4.503-1.935c0.762-0.327,1.113-1.209,0.786-1.971  c-0.327-0.761-1.209-1.112-1.97-0.786l-3.504,1.505c-0.507-6.98-1.989-17.865-6.312-24.78c-2.341-3.745-5.029-5.644-7.99-5.644  c-2.884,0-5.897,1.776-9.214,5.43c-0.818,0.901-1.885,2.563-2.535,3.625c-1.894-0.381-3.794-0.629-5.663-0.741  c-1.557-0.093-3.128-0.093-4.683,0c-1.868,0.111-3.769,0.36-5.664,0.741c-0.653-1.069-1.709-2.717-2.534-3.625  c-3.317-3.654-6.332-5.431-9.215-5.431c-2.961,0-5.649,1.899-7.991,5.644c-4.323,6.916-5.805,17.8-6.312,24.78l-3.504-1.505  c-0.761-0.324-1.643,0.025-1.971,0.786c-0.327,0.761,0.025,1.644,0.786,1.971l4.504,1.935c-0.071,1.669-0.08,2.848-0.08,3.29  c0,0.727,0.043,1.444,0.107,2.157h-3.94c-0.829,0-1.5,0.672-1.5,1.5s0.671,1.5,1.5,1.5h4.4c0.346,1.581,0.84,3.12,1.484,4.6  l-6.478,2.783c-0.761,0.327-1.113,1.209-0.786,1.97c0.244,0.568,0.798,0.908,1.379,0.908c0.198,0,0.398-0.039,0.592-0.122  l6.648-2.856C24.642,74.371,36.411,81,50,81s25.357-6.629,30.914-16.217l6.649,2.856c0.192,0.083,0.394,0.122,0.591,0.122  c0.582,0,1.135-0.34,1.379-0.908C89.86,66.093,89.509,65.21,88.747,64.884z M50,78c-12.347,0-23.044-5.884-28.143-14.407l0.73-0.313  c0.761-0.327,1.113-1.209,0.786-1.97s-1.208-1.113-1.971-0.786l-0.918,0.395c-0.481-1.106-0.876-2.246-1.169-3.417h2.683  c0.829,0,1.5-0.672,1.5-1.5s-0.671-1.5-1.5-1.5h-3.2c-0.073-0.712-0.119-1.43-0.119-2.157c0-0.621,0.013-1.308,0.033-2.021  l2.694,1.157c0.193,0.083,0.394,0.122,0.592,0.122c0.581,0,1.135-0.34,1.379-0.908c0.327-0.761-0.025-1.644-0.786-1.971  l-3.732-1.604c0.487-7.75,2.083-18.27,5.941-24.442c1.781-2.849,3.563-4.234,5.447-4.234c1.962,0,4.314,1.496,6.993,4.447  c0.837,0.922,2.251,3.239,2.725,4.054c0.33,0.567,0.988,0.857,1.63,0.709c2.086-0.475,4.186-0.778,6.242-0.9  c1.438-0.086,2.889-0.086,4.326,0c2.058,0.122,4.157,0.425,6.243,0.9c0.643,0.149,1.305-0.146,1.634-0.714  c0.354-0.612,1.852-3.092,2.721-4.048c2.679-2.951,5.031-4.447,6.993-4.447c1.884,0,3.665,1.385,5.446,4.234  c3.858,6.172,5.454,16.692,5.941,24.442l-3.73,1.603c-0.762,0.327-1.113,1.209-0.786,1.971c0.244,0.568,0.797,0.908,1.379,0.908  c0.197,0,0.398-0.039,0.591-0.122l2.693-1.157c0.02,0.714,0.032,1.4,0.032,2.021c0,0.728-0.046,1.445-0.119,2.157h-3.198  c-0.828,0-1.5,0.672-1.5,1.5s0.672,1.5,1.5,1.5h2.682c-0.293,1.171-0.688,2.311-1.17,3.417l-0.919-0.395  c-0.762-0.329-1.643,0.025-1.97,0.786s0.024,1.644,0.786,1.97l0.729,0.313C73.044,72.116,62.347,78,50,78z"/></svg>